<svg class="icon" style="width: 1em; height: 1em;vertical-align: middle;fill: currentColor;overflow: hidden;" viewBox="0 0 1024 1024" version="1.1" xmlns="http://www.w3.org/2000/svg"><path d="M554.666667 179.2V128c0-25.6-17.066667-42.666667-42.666667-42.666667v93.866667C418.133333 196.266667 384 243.2 384 298.666667c0 34.133333 12.8 64 34.133333 85.333333L170.666667 849.066667V938.666667l93.866666-85.333334 230.4-426.666666h17.066667c72.533333 0 128-55.466667 128-128 0-55.466667-34.133333-102.4-85.333333-119.466667m-4.266667 140.8c-8.533333 12.8-21.333333 21.333333-38.4 21.333333-25.6 0-42.666667-17.066667-42.666667-42.666666 0-8.533333 4.266667-12.8 4.266667-21.333334 8.533333-12.8 21.333333-21.333333 38.4-21.333333 25.6 0 42.666667 17.066667 42.666667 42.666667 0 8.533333-4.266667 12.8-4.266667 21.333333M853.333333 849.066667V938.666667l-93.866666-85.333334-187.733334-349.866666c29.866667-8.533333 55.466667-21.333333 76.8-38.4l204.8 384z" fill="" /></svg>