<svg id="Layer_1" data-name="Layer 1" xmlns="http://www.w3.org/2000/svg" viewBox="0 0 1024 1024"><title>Artboard 1</title><path d="M169.11111,242.22221H894.88885A32.77777,32.77777,0,0,1,927.66663,275v52.22224A32.77777,32.77777,0,0,1,894.88885,360H169.1111a32.77777,32.77777,0,0,1-32.77777-32.77777V275a32.77779,32.77779,0,0,1,32.77779-32.77779Z" style="fill:#fff"/><path d="M169.11111,438.88889H692.66663a32.77777,32.77777,0,0,1,32.77777,32.77777v52.22226a32.77777,32.77777,0,0,1-32.77777,32.77777H169.11111a32.77779,32.77779,0,0,1-32.77779-32.77779V471.66667A32.77779,32.77779,0,0,1,169.11111,438.88889Z" style="fill:#fff"/><path d="M169.11111,635.55554H463.77777a32.77777,32.77777,0,0,1,32.77777,32.77777v52.22223a32.77777,32.77777,0,0,1-32.77777,32.77777H169.11111a32.77779,32.77779,0,0,1-32.77779-32.77779v-52.2222A32.77779,32.77779,0,0,1,169.11111,635.55554Z" style="fill:#fff"/></svg>