<svg id="Layer_1" data-name="Layer 1" xmlns="http://www.w3.org/2000/svg" xmlns:xlink="http://www.w3.org/1999/xlink" viewBox="0 0 1920.00007 1080"><defs><linearGradient id="linear-gradient" x1="-83.82355" y1="491.51713" x2="174.47619" y2="1120.64321" gradientUnits="userSpaceOnUse"><stop offset="0" stop-color="#5415ff"/><stop offset="1" stop-color="#fff" stop-opacity="0.28"/></linearGradient><linearGradient id="linear-gradient-2" x1="-91.46927" y1="792.6201" x2="689.16013" y2="1216.66569" gradientUnits="userSpaceOnUse"><stop offset="0" stop-color="#ff2ea9"/><stop offset="1" stop-color="#fff" stop-opacity="0.28"/></linearGradient><linearGradient id="linear-gradient-3" y1="905.26142" x2="1012.11168" y2="905.26142" gradientUnits="userSpaceOnUse"><stop offset="0" stop-color="#ff9917"/><stop offset="1" stop-color="#fff" stop-opacity="0.28"/></linearGradient><linearGradient id="linear-gradient-4" x1="132.49629" y1="1120.29995" x2="321.66295" y2="1581.04253" gradientTransform="translate(1920 1491.74472) rotate(180)" xlink:href="#linear-gradient"/><linearGradient id="linear-gradient-5" x1="-84.70979" y1="1225.60189" x2="638.23192" y2="1618.31096" gradientTransform="translate(1920 1491.74472) rotate(180)" xlink:href="#linear-gradient-2"/><linearGradient id="linear-gradient-6" y1="1197.24458" x2="292.25775" y2="1197.24458" gradientTransform="translate(1920 1491.74472) rotate(180)" xlink:href="#linear-gradient-3"/></defs><title>Resource-bg</title><rect width="1920.00007" height="1080" style="fill:#fbf3ff"/><g style="opacity:0.25"><polygon points="0 1080 0 444 315.579 1080 0 1080" style="fill:url(#linear-gradient)"/></g><g style="opacity:0.25"><polygon points="0 1080 0 604.614 782.086 1080 0 1080" style="fill:url(#linear-gradient-2)"/></g><g style="opacity:0.25"><polygon points="0 1080 0 730.523 1012.112 1080 0 1080" style="fill:url(#linear-gradient-3)"/></g><g style="opacity:0.15"><polygon points="0 1080 0 895.173 477 1080 0 1080" style="fill:#ffca5c"/></g><g style="opacity:0.25"><polygon points="1920 0 1920 326.641 1350 0 1920 0" style="fill:url(#linear-gradient-4)"/></g><g style="opacity:0.25"><polygon points="1920 0 1920 440.255 1195.709 0 1920 0" style="fill:url(#linear-gradient-5)"/></g><g style="opacity:0.25"><polygon points="1920 0 1920 589 1627.742 0 1920 0" style="fill:url(#linear-gradient-6)"/></g></svg>